<svg width="512" height="512" viewBox="0 0 512 512" fill="none" xmlns="http://www.w3.org/2000/svg">
<rect width="512" height="512" rx="64" fill="#3B82F6"/>
<path d="M256 128C208.6 128 170.7 165.9 170.7 213.3V256H149.3C133.9 256 121.3 268.6 121.3 284V405.3C121.3 420.7 133.9 433.3 149.3 433.3H362.7C378.1 433.3 390.7 420.7 390.7 405.3V284C390.7 268.6 378.1 256 362.7 256H341.3V213.3C341.3 165.9 303.4 128 256 128ZM298.7 256H213.3V213.3C213.3 191.7 230.7 174.3 252.3 174.3H259.7C281.3 174.3 298.7 191.7 298.7 213.3V256Z" fill="white"/>
</svg>
